<?xml version="1.0" encoding="utf-8"?>
<!-- Generator: Adobe Illustrator 22.1.0, SVG Export Plug-In . SVG Version: 6.00 Build 0)  -->
<svg version="1.1" id="レイヤー_1" xmlns="http://www.w3.org/2000/svg" xmlns:xlink="http://www.w3.org/1999/xlink" x="0px"
	 y="0px" viewBox="0 0 127.6 25.5" style="enable-background:new 0 0 127.6 25.5;" xml:space="preserve">
<style type="text/css">
	.st0{fill:#003477;}
	.st1{fill-rule:evenodd;clip-rule:evenodd;fill:#003477;}
	.st2{fill-rule:evenodd;clip-rule:evenodd;fill:#D82115;}
</style>
<g>
	<path class="st0" d="M60.7,21.6c1.3-1.3,1.9-3,2.2-5.1l1.1,0.3c0.1,0,0.2,0.1,0.2,0.2c0,0.1-0.2,0.2-0.3,0.2
		c-0.3,1.7-1.1,3.6-2.3,4.9L60.7,21.6z M66.3,16.6c1.1,1.4,1.9,3.3,2.3,5l-1,0.3c-0.3-1.8-1-3.5-2.1-4.8L66.3,16.6z"/>
	<path class="st0" d="M70.3,19.3c2.5-0.8,4.2-2.2,5.5-4l0.8,0.6c0.1,0,0.1,0.1,0.1,0.2c0,0.1-0.1,0.2-0.4,0.2
		c-0.5,0.6-1.2,1.3-1.8,1.7v2.4c0,0.8,0.1,1.7,0.1,2.5h-1c0-0.9,0.1-1.7,0.1-2.6v-1.7c-0.8,0.6-1.5,1-2.5,1.4L70.3,19.3z"/>
	<path class="st0" d="M79.7,17.5c0.8,0.3,1.3,0.5,2.1,1l-0.4,0.7c-0.5-0.4-1.5-0.8-2-0.9L79.7,17.5z M86.1,18.4
		c-1.6,2.2-3.3,3.4-5.2,4.5c0,0.1-0.1,0.3-0.2,0.3c-0.1,0-0.2-0.1-0.3-0.2l-0.6-0.8c1.9-0.5,4.4-2.3,5.7-4.5L86.1,18.4z M80.7,15.3
		c0.7,0.3,1.4,0.6,2,1.1L82.4,17c-0.4-0.3-1.5-0.8-2.1-1L80.7,15.3z"/>
	<path class="st0" d="M95.2,18.6c-1.7,1.8-3.6,2.9-5.8,3.8c0,0.1-0.1,0.3-0.2,0.3c-0.1,0-0.1-0.1-0.2-0.2l-0.5-0.9
		c2-0.4,4.6-1.7,6.3-3.8L95.2,18.6z M89.2,15.7c0.8,0.4,1.5,0.8,2,1.3l-0.5,0.8c-0.5-0.5-1.2-0.9-2-1.2L89.2,15.7z"/>
	<path class="st0" d="M97.4,18.9c1.1-0.9,2-2.2,2.5-3.5l1,0.4c0.1,0,0.1,0.1,0.1,0.2c0,0.1-0.1,0.1-0.3,0.2
		c-0.1,0.2-0.2,0.3-0.3,0.5h1.4c0.6,0,1.2-0.1,1.5-0.2l0.7,0.7c-0.1,0.1-0.2,0.2-0.3,0.3c-0.8,2.6-2.4,4.7-4.3,5.6l-0.8-0.6
		c2.1-0.9,3.6-2.6,4.2-5.1h-2.8c-0.4,0.7-1.2,1.7-1.8,2.1L97.4,18.9z"/>
	<path class="st0" d="M108.9,15.4c0.1,0,0.2,0.1,0.2,0.1c0,0.1,0,0.1-0.1,0.1c0.4,0.7,1.3,1.1,2.1,1.4l-0.5,0.6
		c-0.3-0.1-0.5-0.3-0.7-0.4v0.6c-0.2,0-0.6-0.1-0.9-0.1H108c-0.2,0-0.6,0-0.9,0.1v-0.4c-0.4,0.3-0.8,0.6-1.2,0.8l-0.6-0.6
		c1.2-0.5,2-1.3,2.6-2.5L108.9,15.4z M109.3,18.3c0.3,0,0.9-0.1,1.2-0.1c0,0.3,0,0.5,0,0.8V20c0,0.3,0,0.5,0.1,0.8
		c-0.3,0-0.9,0-1.2,0h-2.1c0,0.1,0,0.3-0.1,0.4c0.2,0,0.5,0,0.7,0h1.8c0.3,0,0.7,0,0.9-0.1c0,0.2,0,0.4,0,0.6v0.7
		c0,0.2,0,0.5,0.1,0.8h-0.8c0-0.1,0-0.2,0-0.2h-1.9c0,0.1,0,0.2,0,0.3h-0.8c0-0.3,0.1-0.6,0.1-0.9v-0.6c0-0.2,0-0.3,0-0.5h0
		c-0.1,0.5-0.4,1-0.6,1.5l-0.8-0.3c0.6-0.6,1-1.6,1-2.5v-1c0-0.3,0-0.5,0-0.8c0.4,0,0.9,0,1.3,0H109.3z M107.3,19.8
		c0,0.2,0,0.3,0,0.5h2.5v-0.5H107.3z M107.3,18.8v0.5h2.5v-0.5H107.3z M108.9,17.1c0.2,0,0.5,0,0.7,0v0c-0.4-0.3-0.9-0.7-1.2-1.1
		c-0.3,0.4-0.7,0.9-0.9,1.1c0.1,0,0.4,0,0.6,0H108.9z M107.9,21.7v0.8h1.9v-0.8H107.9z M112,16.2c0.1,0,0.2,0,0.2,0.1
		c0,0.1-0.1,0.1-0.2,0.2c0,0.2,0,0.9,0,1.3v1.7c0,0.6,0.1,1.3,0.1,1.7h-0.9c0-0.3,0.1-1.2,0.1-1.6v-1.9c0-0.6,0-1.2-0.1-1.7
		L112,16.2z M113.5,15.4c0.1,0,0.2,0,0.2,0.1c0,0.1-0.1,0.1-0.2,0.3c0,0.3,0,1.6,0,2.3v2.4c0,0.6,0,1.3,0,1.9c0,0.4-0.2,0.6-0.6,0.7
		c-0.3,0.1-0.6,0.1-0.9,0l-0.4-0.8c0.2,0,0.5,0.1,0.7,0.1c0.4,0,0.4,0,0.4-0.3v-4.1c0-0.7-0.1-2.5-0.1-2.7L113.5,15.4z"/>
	<path class="st0" d="M114.2,20.5c0.9-0.9,1.3-2,1.4-3.4c0-0.3,0.1-0.6,0.1-0.9c-0.3,0-0.7,0-1,0.1v-0.9c0.2,0,0.8,0.1,1,0.1h1
		c0.3,0,0.7,0,1-0.1v0.9c-0.2,0-0.8-0.1-1-0.1h-0.2c0,0.6-0.1,1.3-0.3,1.9h0.4c0.3,0,0.7,0,0.9,0c0,0.2,0,1,0,1.3v1.3
		c0,0.7,0,1.4,0,1.8h-0.8c0-0.2,0-0.3,0-0.5h-0.8c0,0.3,0,0.7,0,1.1h-0.9c0.1-0.8,0.1-1.6,0.1-2.5v-0.3h0c-0.1,0.2-0.2,0.4-0.3,0.5
		L114.2,20.5z M116.1,18.8v2.5h0.8v-2.5H116.1z M122.9,19c-0.4,0-0.8-0.1-1.2-0.1v0.6c0,1.3,0,2.6,0.1,3.8h-1
		c0.1-1.3,0.1-2.5,0.1-3.8v-0.7h-1.1c0,0.6-0.1,1.5-0.2,1.9c-0.2,1-0.7,2-1.5,2.6l-0.7-0.6c0.5-0.3,0.8-0.6,1.1-1.2
		c0.4-0.8,0.5-1.8,0.5-2.7c-0.4,0-0.7,0-1.1,0.1v-0.9c0.3,0,0.7,0.1,1.1,0.1v-2c-0.1,0-0.6,0-1,0v-0.8c0.5,0,1.2,0,1.7,0h1.3
		c0.5,0,1.4,0,1.7,0v0.8c-0.4,0-0.8,0-1,0v2c0.5,0,0.8,0,1.2-0.1V19z M120.9,18.2v-2h-1.1v2H120.9z"/>
</g>
<g>
	<path class="st0" d="M30,21.1c0.6-0.5,1-1.4,1.2-2.3h-0.1c-0.2,0-0.6,0-0.8,0.1v-0.7c0.2,0,0.6,0.1,0.8,0.1h0.2c0-0.5,0-0.9,0-1.4
		l0.7,0.1c0.1,0,0.2,0,0.2,0.1c0,0.1-0.1,0.1-0.2,0.2c0,0.2,0,0.7,0,1.1c0.3,0,0.6,0,0.8-0.1v0.7c-0.2,0-0.5-0.1-0.8-0.1V19
		c0.2,0.6,0.5,1.1,1,1.5L32.4,21c-0.2-0.2-0.4-0.4-0.5-0.7h0v1c0,0.6,0,1.2,0.1,1.9h-0.8c0.1-0.6,0.1-1.3,0.1-1.9v-0.8h0
		c-0.2,0.4-0.4,0.7-0.7,1L30,21.1z M32.1,22.3c0.7-0.2,1.5-1.1,1.9-2.1h-0.1c-0.4,0-0.8,0-1.3,0.1v-0.7c0.4,0,0.8,0.1,1.3,0.1h0.4
		v-0.9h-0.7c-0.1,0.3-0.3,0.5-0.5,0.7l-0.6-0.4c0.5-0.4,0.8-1.2,0.9-1.9l0.7,0.2c0.1,0,0.1,0.1,0.1,0.1c0,0,0,0.1-0.2,0.1
		c0,0.2-0.1,0.4-0.2,0.6h0.5v-0.4c0-0.4,0-0.7,0-1.1l0.7,0c0.1,0,0.1,0,0.1,0.1c0,0.1,0,0.1-0.2,0.2c0,0.2,0,0.5,0,0.8v0.3h0.2
		c0.4,0,0.9,0,1.2-0.1v0.6c-0.2,0-0.8,0-1.2,0h-0.2v0.8h0.3c0.4,0,0.9,0,1.3-0.1v0.7c-0.4,0-0.9-0.1-1.3-0.1h-0.1
		c0.3,0.9,1,1.7,1.7,2l-0.5,0.5c-0.6-0.4-1-0.9-1.3-1.5h0v0.1c0,0.6,0,1.3,0.1,1.9h-0.8c0-0.6,0.1-1.3,0.1-1.9v-0.2h0
		c-0.4,0.7-0.9,1.3-1.6,1.6L32.1,22.3z"/>
	<path class="st0" d="M41.3,16.9c0.1,0,0.2,0,0.2,0.1c0,0.1-0.1,0.2-0.2,0.2c0,0.4,0,0.7,0,1.1h0.1c0.6,0,1.7,0,2-0.1v0.7
		c-0.3,0-1.5-0.1-2-0.1h-0.1c0,0.6,0.4,2,0.8,2.8c0.2,0.4,0.5,0.7,0.7,0.7c0.2,0,0.4-0.6,0.5-0.9l0.4,0.7c-0.3,0.8-0.5,1.1-0.9,1.1
		c-0.4,0-1.7-0.6-2.1-4.3l-1.3,0c-0.5,0-1.8,0.1-2,0.1v-0.7c0.3,0,1.5,0,2,0l1.2,0c0-0.5-0.1-1-0.1-1.5L41.3,16.9z M39.6,19.9
		c0.3,0,0.8,0,1,0v0.6c-0.2,0-0.7,0-1.1,0h-0.1v1.5c0.4-0.1,1-0.2,1.4-0.2l-0.1,0.6c-1,0.2-2,0.4-3,0.6c0,0.1-0.1,0.2-0.2,0.2
		c-0.1,0-0.1-0.1-0.1-0.1l-0.1-0.8c0.4,0,0.9-0.1,1.4-0.2v-1.6h-0.2c-0.2,0-0.7,0-0.9,0.1v-0.7c0.2,0,0.8,0,1,0H39.6z M42.2,16.9
		c0.2,0.1,0.8,0.5,0.9,0.7l-0.5,0.5c-0.3-0.3-0.5-0.6-0.9-0.8L42.2,16.9z"/>
	<path class="st0" d="M44.1,19.2c1.2-0.3,2.4-1.2,3-2.4l0.7,0.3c0.1,0,0.1,0.1,0.1,0.1c0,0.1-0.1,0.1-0.1,0.1
		c0.5,0.9,1.7,1.6,2.9,1.9l-0.4,0.6c-0.4-0.2-0.8-0.3-1.2-0.6v0.4c-0.4,0-0.9,0-1.1,0h-1.1c-0.4,0-0.8,0-1.1,0v-0.4
		c-0.2,0.2-0.7,0.4-1.1,0.6L44.1,19.2z M48.6,21.1c0.5,0.4,1,0.9,1.4,1.7l-0.5,0.4c-0.1-0.3-0.2-0.5-0.4-0.7c-1,0.1-2.5,0.4-3.6,0.5
		c-0.1,0.1-0.1,0.2-0.2,0.2c0,0-0.1,0-0.1-0.1l-0.1-0.7c0.3,0,0.5,0,0.7,0c0.3-0.4,0.6-0.9,0.8-1.4h-0.3c-0.5,0-1.1,0-1.8,0.1v-0.7
		c0.7,0,1.3,0,1.8,0H48c0.6,0,1.3,0,2.3-0.1v0.7c-1,0-1.7,0-2.3,0h-0.6c-0.2,0.5-0.4,0.9-0.7,1.4c0.7-0.1,1.3-0.1,2-0.2
		c-0.2-0.2-0.4-0.4-0.6-0.5L48.6,21.1z M48,19.1c0.3,0,0.5,0,0.8,0v0c-0.6-0.4-1-0.7-1.4-1.3c-0.4,0.5-0.8,1-1.4,1.3
		c0.2,0,0.5,0,0.9,0H48z"/>
	<path class="st0" d="M53.1,17c0,0,0.1,0,0.1,0.1c0,0.1,0,0.1-0.2,0.2c0,0.2,0,0.4,0,0.5v0.3c0.2,0,0.5,0,0.7-0.1l0.3,0.3
		c-0.3,0.4-0.5,0.9-0.9,1.3c0.4,0.3,0.8,0.6,1.1,1l-0.5,0.5c-0.2-0.3-0.5-0.6-0.8-0.8v1.5c0,0.4,0,1,0,1.3h-0.7
		c0-0.4,0.1-0.9,0.1-1.3v-1.3c-0.3,0.3-0.6,0.5-1,0.8L51,20.7c0.8-0.4,1.7-1.1,2-2h-0.8c-0.3,0-0.7,0-0.9,0v-0.7c0.2,0,0.6,0,0.8,0
		h0.2v-0.3c0-0.3,0-0.6,0-0.9L53.1,17z M56.1,16.9c0.1,0,0.2,0,0.2,0.1c0,0.1,0,0.1-0.2,0.2c0,0.1,0,0.9,0,1.4V19h0.1
		c0.3,0,0.8,0,1.1-0.1v0.6c-0.3,0-0.8,0-1.1,0h-0.1v2.7h0.2c0.3,0,0.9,0,1.3-0.1v0.7c-0.4,0-0.9,0-1.3,0H55c-0.3,0-1,0-1.2,0v-0.6
		c0.3,0,0.9,0,1.2,0h0.4v-2.7h-0.3c-0.4,0-0.8,0-1.1,0V19c0.3,0,0.8,0.1,1.1,0.1h0.3v-0.5c0-0.4,0-1.1,0-1.7L56.1,16.9z"/>
</g>
<g>
	<polygon class="st1" points="22.9,2.9 19.4,7.4 19.4,17.6 22.9,22 	"/>
	<path class="st1" d="M21.1,23.6L16,13.8l6.8,8.6C22.4,23,21.7,23.4,21.1,23.6"/>
	<path class="st1" d="M16,11.1l5.1-9.8c0.7,0.2,1.4,0.6,1.7,1.2L16,11.1z"/>
	<path class="st1" d="M21.1,1.3v3.3L16,11.1c-1.4,1.8-4,1.9-5.5,0L5.4,4.6V1.4c0.9-0.2,1.9,0,2.7,1.1L13.2,9l5.1-6.6
		C19.2,1.4,20.2,1.2,21.1,1.3"/>
	<path class="st1" d="M21.1,20.3v3.3c-0.9,0.2-1.9,0-2.7-1.1L13.2,16l-5.1,6.6c-0.8,1-1.8,1.3-2.7,1.1v-3.3l5.1-6.5
		c1.4-1.8,4.1-1.8,5.5,0L21.1,20.3z"/>
	<path class="st1" d="M5.4,1.4l5.1,9.8L3.7,2.5C4.1,2,4.7,1.5,5.4,1.4"/>
	<polygon class="st1" points="3.6,2.9 3.6,22 7.1,17.6 7.1,7.4 	"/>
	<path class="st1" d="M10.8,13.4L5.4,23.6c-0.7-0.2-1.3-0.6-1.7-1.2L10.8,13.4z"/>
</g>
<g>
	<path class="st2" d="M54.7,3c2,0,3.1,1.3,3.5,2l-2,1.3c-0.3-0.6-0.9-1-2-1c-1.5,0-2.8,1-3.3,2.8c-0.5,1.8,1,2.8,1.9,2.8
		c1.2,0,1.6-0.4,2.2-1l1.4,1.7c-1.2,1-2.1,1.7-4.2,1.7c-2.1,0-4.6-2-3.8-5.2C49.3,4.6,51.7,3,54.7,3"/>
	<polygon class="st2" points="42.9,3 42,6.7 45.2,6.6 46.1,3 48.6,3 46.1,13.3 43.6,13.3 44.7,8.6 41.5,8.6 40.4,13.3 37.9,13.3 
		37.9,13.2 40.4,3 	"/>
	<polygon class="st2" points="35.5,3 33.3,11.4 37.3,11.5 37,13.3 30.1,13.3 30.1,13.3 32.6,3 	"/>
</g>
</svg>
